<?xml version='1.0' encoding='iso-8859-1'?>
<svg version="1.1" xmlns="http://www.w3.org/2000/svg" viewBox="0 0 470 470" xmlns:xlink="http://www.w3.org/1999/xlink" enable-background="new 0 0 470 470">
  <g>
    <path d="m462.5,0h-98.75c-4.143,0-7.5,3.357-7.5,7.5s3.357,7.5 7.5,7.5h91.25v212.5h-55.254c1-4.062 1.504-8.238 1.504-12.5 0-28.948-23.552-52.5-52.5-52.5s-52.5,23.552-52.5,52.5c0,4.261 0.504,8.438 1.504,12.5h-55.254v-65.957c0-2.597-1.343-5.009-3.551-6.376-2.206-1.367-4.964-1.496-7.289-0.339-5.232,2.603-10.838,3.922-16.66,3.922-20.678,0-37.5-16.822-37.5-37.5s16.822-37.5 37.5-37.5c5.824,0 11.429,1.319 16.659,3.922 2.322,1.157 5.082,1.03 7.29-0.339 2.208-1.367 3.551-3.779 3.551-6.376v-65.957h91.25c4.143,0 7.5-3.357 7.5-7.5s-3.357-7.5-7.5-7.5h-326.25c-4.143,0-7.5,3.357-7.5,7.5v455c0,4.143 3.357,7.5 7.5,7.5h455c4.143,0 7.5-3.357 7.5-7.5v-455c0-4.143-3.357-7.5-7.5-7.5zm-235,15v55.254c-4.062-1-8.238-1.504-12.5-1.504-28.948,0-52.5,23.552-52.5,52.5s23.552,52.5 52.5,52.5c4.261,0 8.438-0.504 12.5-1.504v55.254h-65.957c-2.597,0-5.009,1.343-6.376,3.551-1.367,2.207-1.496,4.965-0.339,7.289 2.603,5.232 3.922,10.838 3.922,16.66 0,20.678-16.822,37.5-37.5,37.5s-37.5-16.822-37.5-37.5c0-5.824 1.319-11.429 3.922-16.659 1.156-2.324 1.028-5.082-0.339-7.29s-3.779-3.551-6.376-3.551h-65.957v-212.5h212.5zm-212.5,227.5h55.254c-1,4.062-1.504,8.238-1.504,12.5 0,28.948 23.552,52.5 52.5,52.5s52.5-23.552 52.5-52.5c0-4.261-0.504-8.438-1.504-12.5h55.254v65.957c0,2.597 1.343,5.009 3.551,6.376 2.207,1.368 4.966,1.497 7.289,0.339 5.232-2.603 10.838-3.922 16.66-3.922 20.678,0 37.5,16.822 37.5,37.5s-16.822,37.5-37.5,37.5c-5.824,0-11.429-1.319-16.659-3.922-2.323-1.157-5.081-1.029-7.29,0.339-2.208,1.367-3.551,3.779-3.551,6.376v65.957h-212.5v-212.5zm227.5,212.5v-55.254c4.062,1 8.238,1.504 12.5,1.504 28.948,0 52.5-23.552 52.5-52.5s-23.552-52.5-52.5-52.5c-4.261,0-8.438,0.504-12.5,1.504v-55.254h65.957c2.597,0 5.009-1.343 6.376-3.551 1.367-2.207 1.496-4.965 0.339-7.289-2.603-5.232-3.922-10.838-3.922-16.66 0-20.678 16.822-37.5 37.5-37.5s37.5,16.822 37.5,37.5c0,5.824-1.319,11.429-3.922,16.659-1.156,2.324-1.028,5.082 0.339,7.29s3.779,3.551 6.376,3.551h65.957v212.5h-212.5z"/>
    <circle cx="417" cy="417" r="7.5"/>
    <circle cx="387" cy="387" r="7.5"/>
    <circle cx="53" cy="53" r="7.5"/>
  </g>
</svg>
