<?xml version="1.0" encoding="iso-8859-1"?>
<!-- Generator: Adobe Illustrator 18.0.0, SVG Export Plug-In . SVG Version: 6.00 Build 0)  -->
<!DOCTYPE svg PUBLIC "-//W3C//DTD SVG 1.1//EN" "http://www.w3.org/Graphics/SVG/1.1/DTD/svg11.dtd">
<svg version="1.1" id="Capa_1" xmlns="http://www.w3.org/2000/svg" xmlns:xlink="http://www.w3.org/1999/xlink" x="0px" y="0px"
	 viewBox="0 0 445.462 445.462" style="enable-background:new 0 0 445.462 445.462;" xml:space="preserve">
<path d="M380.226,65.237C338.158,23.168,282.225,0,222.731,0S107.305,23.168,65.236,65.237S0,163.238,0,222.731
	s23.168,115.426,65.236,157.495s98.001,65.236,157.495,65.236s115.426-23.168,157.495-65.236s65.236-98.001,65.236-157.495
	S422.294,107.305,380.226,65.237z M414.882,207.731h-26.477c-7.165-79.784-70.89-143.509-150.674-150.674V30.581
	C332.07,37.877,407.586,113.393,414.882,207.731z M207.731,237.731v23.049c-10.508-4.157-18.892-12.541-23.049-23.049H207.731z
	 M184.682,207.731c4.157-10.508,12.541-18.891,23.049-23.049v23.049H184.682z M237.731,237.731h23.049
	c-4.157,10.508-12.541,18.891-23.049,23.049V237.731z M237.731,207.731v-23.049c10.508,4.157,18.891,12.541,23.049,23.049H237.731z
	 M207.731,163.695c-21.555,5.479-38.557,22.481-44.036,44.036h-34.763c6.435-40.386,38.413-72.365,78.799-78.799V163.695z
	 M163.695,237.731c5.48,21.555,22.481,38.557,44.036,44.036v34.763c-40.386-6.435-72.365-38.413-78.799-78.799H163.695z
	 M237.731,281.767c21.555-5.479,38.556-22.481,44.036-44.036h34.763c-6.435,40.386-38.413,72.365-78.799,78.799V281.767z
	 M281.767,207.731c-5.479-21.555-22.481-38.556-44.036-44.036v-34.763c40.386,6.435,72.364,38.413,78.799,78.799H281.767z
	 M207.731,108.721c-51.432,6.73-92.279,47.578-99.01,99.01H77.137c7.031-68.75,61.845-123.563,130.594-130.594V108.721z
	 M108.722,237.731c6.73,51.432,47.578,92.279,99.01,99.01v31.584c-68.75-7.031-123.564-61.844-130.594-130.594H108.722z
	 M237.731,336.741c51.432-6.73,92.279-47.578,99.009-99.01h31.585c-7.031,68.75-61.844,123.563-130.594,130.594V336.741z
	 M336.741,207.731c-6.73-51.432-47.577-92.279-99.009-99.01V77.137c68.749,7.031,123.563,61.844,130.594,130.594H336.741z
	 M207.731,30.581v26.477c-79.784,7.165-143.509,70.89-150.674,150.674H30.58C37.877,113.393,113.393,37.877,207.731,30.581z
	 M30.58,237.731h26.477c7.165,79.784,70.89,143.509,150.674,150.674v26.477C113.393,407.585,37.877,332.069,30.58,237.731z
	 M237.731,414.882v-26.477c79.784-7.165,143.509-70.89,150.674-150.674h26.477C407.586,332.069,332.07,407.585,237.731,414.882z"/>
<g>
</g>
<g>
</g>
<g>
</g>
<g>
</g>
<g>
</g>
<g>
</g>
<g>
</g>
<g>
</g>
<g>
</g>
<g>
</g>
<g>
</g>
<g>
</g>
<g>
</g>
<g>
</g>
<g>
</g>
</svg>
